<?xml version="1.0" standalone="no"?>
<!DOCTYPE svg PUBLIC "-//W3C//DTD SVG 20010904//EN"
 "http://www.w3.org/TR/2001/REC-SVG-20010904/DTD/svg10.dtd">
<svg version="1.0" xmlns="http://www.w3.org/2000/svg"
 width="512.000000pt" height="512.000000pt" viewBox="0 0 512.000000 512.000000"
 preserveAspectRatio="xMidYMid meet">

<g transform="translate(0.000000,512.000000) scale(0.100000,-0.100000)"
fill="#000000" stroke="none">
<path d="M4828 5108 c-45 -12 -1242 -907 -1405 -1050 -151 -133 -333 -331
-471 -514 -61 -81 -212 -316 -212 -331 0 -5 96 -104 213 -221 l214 -214 112
69 c285 173 610 459 827 728 44 55 163 210 264 345 101 135 186 247 190 250 4
3 74 96 156 207 387 523 358 477 352 565 -3 46 -11 66 -35 95 -53 67 -128 92
-205 71z m-983 -1148 c26 -33 45 -64 43 -69 -4 -12 -115 -101 -125 -101 -12 0
-104 111 -101 121 4 11 120 108 130 108 4 1 28 -26 53 -59z m-294 -375 c-42
-44 -95 -101 -118 -127 -22 -27 -43 -48 -46 -48 -3 0 -33 23 -67 51 l-61 50
53 62 c29 34 87 97 128 140 l75 79 56 -64 57 -63 -77 -80z"/>
</g>
</svg>
