<?xml version="1.0" standalone="no"?>
<!DOCTYPE svg PUBLIC "-//W3C//DTD SVG 20010904//EN"
 "http://www.w3.org/TR/2001/REC-SVG-20010904/DTD/svg10.dtd">
<svg version="1.0" xmlns="http://www.w3.org/2000/svg"
 width="512.000000pt" height="512.000000pt" viewBox="0 0 512.000000 512.000000"
 preserveAspectRatio="xMidYMid meet">

<g transform="translate(0.000000,512.000000) scale(0.100000,-0.100000)"
fill="#000000" stroke="none">
<path d="M2060 5007 c-92 -48 -223 -132 -234 -150 -11 -18 -15 -143 -20 -627
l-6 -606 47 -34 c27 -19 51 -36 56 -38 4 -2 7 269 7 603 0 562 1 607 17 601 9
-4 625 -358 1370 -788 l1353 -782 0 -888 c0 -488 -3 -888 -7 -888 -5 0 -498
283 -1098 630 -599 346 -1091 627 -1093 625 -5 -5 17 -118 26 -126 4 -4 517
-302 1141 -662 l1133 -655 104 60 104 59 2 402 c2 221 3 656 3 967 0 557 0
566 -21 611 -12 26 -39 64 -60 85 -24 23 -514 311 -1294 761 -1623 937 -1487
862 -1530 840z"/>
<path d="M2627 3526 c-4 -127 -7 -366 -7 -531 l1 -300 83 -47 c46 -27 86 -48
90 -48 3 0 5 239 4 532 l-3 532 -81 47 -81 46 -6 -231z"/>
<path d="M1193 3651 c-117 -40 -198 -133 -244 -281 -20 -63 -24 -96 -24 -210
1 -199 44 -375 144 -583 l47 -98 -31 -18 c-141 -86 -436 -251 -447 -251 -8 0
-30 16 -48 35 -19 20 -42 34 -50 33 -8 -2 -92 -47 -187 -102 l-171 -99 58 -54
58 -54 -54 -114 c-30 -62 -54 -116 -54 -119 0 -3 78 39 172 94 l173 99 55 102
55 103 248 143 c136 79 251 143 255 143 4 0 25 -28 47 -63 140 -217 359 -409
560 -489 73 -30 89 -32 195 -33 98 0 122 3 162 22 67 31 143 105 177 175 50
99 65 189 58 352 -3 78 -10 159 -16 181 -5 22 -14 64 -20 94 -12 57 -101 264
-157 363 -85 149 -265 378 -339 430 -197 139 -260 173 -372 202 -80 21 -185
20 -250 -3z m268 -145 c129 -28 264 -112 395 -247 140 -146 227 -283 299 -472
58 -154 77 -247 77 -382 0 -127 -21 -210 -73 -289 -144 -217 -465 -165 -740
121 -84 87 -179 210 -179 232 0 9 69 51 84 51 3 0 29 -31 56 -70 75 -102 187
-201 285 -251 182 -92 332 -55 404 100 50 109 40 306 -25 478 -105 279 -343
521 -554 565 -226 46 -363 -157 -306 -454 16 -85 49 -183 83 -251 13 -26 21
-52 18 -58 -4 -5 -24 -18 -45 -29 l-40 -20 -35 70 c-20 39 -50 112 -67 163
-124 371 -45 680 192 743 60 17 92 16 171 0z m153 -344 c81 -38 173 -125 242
-227 153 -231 175 -483 51 -592 -109 -96 -308 -21 -457 172 -48 62 -48 58 20
94 l35 19 30 -39 c69 -93 199 -145 260 -105 105 69 62 306 -82 453 -86 88
-180 117 -238 71 -69 -54 -73 -168 -11 -309 5 -13 -4 -23 -40 -43 -25 -14 -48
-26 -49 -26 -2 0 -17 33 -33 73 -40 96 -56 180 -50 276 11 193 142 267 322
183z"/>
<path d="M2980 2905 l0 -414 83 -49 c45 -27 83 -49 84 -48 1 1 3 188 4 416 l1
415 -82 48 c-45 26 -84 47 -86 47 -2 0 -4 -187 -4 -415z"/>
<path d="M4400 2410 l0 -739 83 -49 c45 -27 83 -49 84 -48 1 1 3 334 4 740 l2
739 -82 48 c-46 27 -85 49 -87 49 -2 0 -4 -333 -4 -740z"/>
<path d="M3692 2509 l3 -431 83 -49 82 -49 -2 432 -3 432 -83 48 -82 47 2
-430z"/>
<path d="M2563 1728 c-78 -45 -145 -89 -149 -98 -3 -8 -8 -28 -10 -45 l-4 -30
188 -44 c103 -24 193 -47 199 -50 9 -5 1 -23 -27 -61 -22 -30 -44 -62 -49 -71
-11 -18 -30 -6 459 -290 194 -114 195 -114 260 -114 64 0 67 1 245 104 99 57
188 111 198 119 12 11 17 30 17 71 l-1 56 -142 81 -142 81 -5 -89 -5 -90 -60
-33 -60 -34 -377 217 -377 217 -1 93 c0 50 -3 92 -7 92 -5 0 -72 -37 -150 -82z"/>
<path d="M1611 1430 c-177 -47 -285 -162 -252 -271 15 -49 69 -111 125 -144
51 -29 154 -61 229 -70 l57 -7 0 61 c0 54 -2 61 -20 61 -30 0 -112 30 -140 52
-33 26 -49 56 -50 92 0 41 63 99 126 115 27 7 57 15 67 18 13 3 17 15 17 59
l0 54 -42 -1 c-24 0 -76 -9 -117 -19z"/>
<path d="M2030 1160 c0 -5 -9 -19 -19 -29 -19 -19 -19 -20 51 -61 64 -38 72
-41 95 -29 30 16 83 87 83 111 0 16 -10 18 -105 18 -63 0 -105 -4 -105 -10z"/>
<path d="M752 995 c0 -16 2 -22 5 -12 2 9 2 23 0 30 -3 6 -5 -1 -5 -18z"/>
<path d="M3490 831 c-253 -148 -305 -183 -308 -202 -2 -17 5 -28 25 -40 16 -9
154 -89 308 -177 153 -89 285 -162 292 -162 13 0 107 53 423 238 80 47 157 92
173 101 20 11 27 23 25 39 -3 20 -57 55 -313 203 -170 98 -312 178 -315 178
-3 0 -142 -80 -310 -178z"/>
<path d="M3180 532 c0 -14 76 -63 306 -196 168 -97 313 -176 321 -176 9 0 134
68 277 151 144 84 280 163 304 176 27 16 42 32 42 45 0 12 -5 18 -12 15 -7 -3
-146 -82 -308 -177 -162 -95 -299 -172 -305 -173 -5 0 -136 73 -290 163 -356
206 -335 195 -335 172z"/>
</g>
</svg>
