<?xml version="1.0" standalone="no"?>
<!DOCTYPE svg PUBLIC "-//W3C//DTD SVG 20010904//EN"
 "http://www.w3.org/TR/2001/REC-SVG-20010904/DTD/svg10.dtd">
<svg version="1.0" xmlns="http://www.w3.org/2000/svg"
 width="512.000000pt" height="512.000000pt" viewBox="0 0 512.000000 512.000000"
 preserveAspectRatio="xMidYMid meet">

<g transform="translate(0.000000,512.000000) scale(0.100000,-0.100000)"
fill="#000000" stroke="none">
<path d="M225 4868 c-79 -17 -152 -74 -193 -152 l-27 -51 -3 -1447 -2 -1448
1590 0 1590 0 0 -47 c-1 -27 -25 -358 -54 -738 -47 -605 -52 -693 -40 -713
l14 -22 959 0 c928 0 958 1 975 19 16 18 14 57 -38 744 -31 399 -56 733 -56
741 0 13 15 16 90 16 l90 0 0 1404 c0 882 -4 1423 -10 1455 -19 104 -75 176
-164 217 l-51 23 -2317 3 c-1275 2 -2333 0 -2353 -4z m4586 -295 c12 -13 14
-206 17 -1145 l2 -1128 -100 0 -100 0 0 -104 c0 -152 -17 -186 -94 -186 -25 0
-40 7 -55 26 -19 24 -21 40 -21 145 l0 119 -394 0 -394 0 -4 -126 c-3 -120 -4
-126 -28 -144 -36 -28 -81 -25 -111 6 -22 24 -24 35 -27 145 l-4 119 -106 0
c-150 -1 -167 -17 -178 -164 l-7 -86 -1442 0 c-1138 0 -1445 3 -1457 13 -15
11 -16 131 -20 1253 -2 1041 -1 1244 11 1257 12 16 182 17 2256 17 2074 0
2244 -1 2256 -17z m-489 -2510 c30 -30 30 -86 0 -116 -22 -21 -28 -22 -253
-22 l-231 0 -24 28 c-32 38 -31 72 6 108 l30 30 225 -3 c217 -3 225 -4 247
-25z"/>
<path d="M622 4347 c-44 -46 -14 -117 48 -117 63 0 93 75 47 118 -30 28 -68
28 -95 -1z"/>
</g>
</svg>
